<svg id="visual" viewBox="0 0 900 600" width="900" height="600" xmlns="http://www.w3.org/2000/svg" xmlns:xlink="http://www.w3.org/1999/xlink" version="1.1"><g><g transform="translate(807 143)"><path d="M201.9 -65C226.7 10.6 187.6 107.5 115.2 160.7C42.7 213.8 -63.2 223.2 -133.1 174.5C-203.1 125.7 -237.1 18.8 -208.9 -61.5C-180.7 -141.8 -90.4 -195.5 -0.9 -195.3C88.6 -195 177.2 -140.7 201.9 -65Z" stroke="#132112" fill="none" stroke-width="20"></path></g><g transform="translate(133 544)"><path d="M106.8 -40.6C118.8 2.3 95.5 50.8 58.5 76.8C21.5 102.9 -29.2 106.4 -65.3 82.1C-101.3 57.7 -122.7 5.4 -109.4 -39.2C-96.1 -83.9 -48 -120.9 -0.3 -120.8C47.4 -120.7 94.7 -83.4 106.8 -40.6Z" stroke="#132112" fill="none" stroke-width="20"></path></g></g></svg>