<svg id="visual" viewBox="0 0 540 960" width="540" height="960" xmlns="http://www.w3.org/2000/svg" xmlns:xlink="http://www.w3.org/1999/xlink" version="1.1"><rect x="0" y="0" width="540" height="960" fill="#fff"></rect><path d="M0 812L12.8 812C25.7 812 51.3 812 77 809.2C102.7 806.3 128.3 800.7 154 799C179.7 797.3 205.3 799.7 231.2 797.2C257 794.7 283 787.3 308.8 780.2C334.7 773 360.3 766 386 765.2C411.7 764.3 437.3 769.7 463 775.3C488.7 781 514.3 787 527.2 790L540 793L540 961L527.2 961C514.3 961 488.7 961 463 961C437.3 961 411.7 961 386 961C360.3 961 334.7 961 308.8 961C283 961 257 961 231.2 961C205.3 961 179.7 961 154 961C128.3 961 102.7 961 77 961C51.3 961 25.7 961 12.8 961L0 961Z" fill="#052f45"></path><path d="M0 767L12.8 776.5C25.7 786 51.3 805 77 810.2C102.7 815.3 128.3 806.7 154 800.3C179.7 794 205.3 790 231.2 794.7C257 799.3 283 812.7 308.8 817.5C334.7 822.3 360.3 818.7 386 816.2C411.7 813.7 437.3 812.3 463 817.2C488.7 822 514.3 833 527.2 838.5L540 844L540 961L527.2 961C514.3 961 488.7 961 463 961C437.3 961 411.7 961 386 961C360.3 961 334.7 961 308.8 961C283 961 257 961 231.2 961C205.3 961 179.7 961 154 961C128.3 961 102.7 961 77 961C51.3 961 25.7 961 12.8 961L0 961Z" fill="#00394a"></path><path d="M0 853L12.8 851.3C25.7 849.7 51.3 846.3 77 846.7C102.7 847 128.3 851 154 855.7C179.7 860.3 205.3 865.7 231.2 868.2C257 870.7 283 870.3 308.8 867.2C334.7 864 360.3 858 386 848.2C411.7 838.3 437.3 824.7 463 828.2C488.7 831.7 514.3 852.3 527.2 862.7L540 873L540 961L527.2 961C514.3 961 488.7 961 463 961C437.3 961 411.7 961 386 961C360.3 961 334.7 961 308.8 961C283 961 257 961 231.2 961C205.3 961 179.7 961 154 961C128.3 961 102.7 961 77 961C51.3 961 25.7 961 12.8 961L0 961Z" fill="#00434c"></path><path d="M0 875L12.8 872.8C25.7 870.7 51.3 866.3 77 867.5C102.7 868.7 128.3 875.3 154 881C179.7 886.7 205.3 891.3 231.2 885.8C257 880.3 283 864.7 308.8 856.5C334.7 848.3 360.3 847.7 386 852.3C411.7 857 437.3 867 463 876.7C488.7 886.3 514.3 895.7 527.2 900.3L540 905L540 961L527.2 961C514.3 961 488.7 961 463 961C437.3 961 411.7 961 386 961C360.3 961 334.7 961 308.8 961C283 961 257 961 231.2 961C205.3 961 179.7 961 154 961C128.3 961 102.7 961 77 961C51.3 961 25.7 961 12.8 961L0 961Z" fill="#0a4c4b"></path><path d="M0 887L12.8 893.2C25.7 899.3 51.3 911.7 77 912C102.7 912.3 128.3 900.7 154 898C179.7 895.3 205.3 901.7 231.2 905.8C257 910 283 912 308.8 915.5C334.7 919 360.3 924 386 924.7C411.7 925.3 437.3 921.7 463 915.3C488.7 909 514.3 900 527.2 895.5L540 891L540 961L527.2 961C514.3 961 488.7 961 463 961C437.3 961 411.7 961 386 961C360.3 961 334.7 961 308.8 961C283 961 257 961 231.2 961C205.3 961 179.7 961 154 961C128.3 961 102.7 961 77 961C51.3 961 25.7 961 12.8 961L0 961Z" fill="#215546"></path></svg>